<?xml version="1.0" encoding="UTF-8" standalone="no"?>
<!-- Generator: Adobe Illustrator 15.0.0, SVG Export Plug-In . SVG Version: 6.00 Build 0)  -->

<svg
   xmlns:dc="http://purl.org/dc/elements/1.1/"
   xmlns:cc="http://creativecommons.org/ns#"
   xmlns:rdf="http://www.w3.org/1999/02/22-rdf-syntax-ns#"
   xmlns:svg="http://www.w3.org/2000/svg"
   xmlns="http://www.w3.org/2000/svg"
   xmlns:sodipodi="http://sodipodi.sourceforge.net/DTD/sodipodi-0.dtd"
   xmlns:inkscape="http://www.inkscape.org/namespaces/inkscape"
   version="1.1"
   x="0px"
   y="0px"
   width="1852.758px"
   height="3600px"
   viewBox="0 0 1852.758 3600"
   enable-background="new 0 0 1852.758 3600"
   xml:space="preserve"
   id="svg2"
   inkscape:version="0.48.1 "
   sodipodi:docname="callite_sample.svg"><metadata
   id="metadata2556"><rdf:RDF><cc:Work
       rdf:about=""><dc:format>image/svg+xml</dc:format><dc:type
         rdf:resource="http://purl.org/dc/dcmitype/StillImage" /><dc:title></dc:title></cc:Work></rdf:RDF></metadata><defs
   id="defs2554" /><sodipodi:namedview
   pagecolor="#ffffff"
   bordercolor="#666666"
   borderopacity="1"
   objecttolerance="10"
   gridtolerance="10"
   guidetolerance="10"
   inkscape:pageopacity="0"
   inkscape:pageshadow="2"
   inkscape:window-width="1920"
   inkscape:window-height="1180"
   id="namedview2552"
   showgrid="false"
   inkscape:zoom="1.4148858"
   inkscape:cx="670.28546"
   inkscape:cy="2961.6111"
   inkscape:window-x="-4"
   inkscape:window-y="-4"
   inkscape:window-maximized="1"
   inkscape:current-layer="Layer_1" />
<g
   id="Layer_1">
	
		
	<text
   transform="scale(1.1717508,0.85342376)"
   font-size="27.0179"
   id="text7"
   x="1244.5745"
   y="408.29666"
   style="font-size:31.65824699px;font-family:TimesNewRomanPSMT">Reservoir </text>





	<text
   transform="scale(1.1717508,0.85342376)"
   font-size="27.0179"
   id="text9"
   x="1242.5034"
   y="580.65735"
   style="font-size:31.65824699px;font-family:TimesNewRomanPSMT">River Flow (positive)</text>





	<text
   transform="scale(1.1717508,0.85342376)"
   font-size="27.0181"
   id="text11"
   x="1245.4771"
   y="486.31311"
   style="font-size:31.6584816px;font-family:TimesNewRomanPSMT">Diversion/Depletion</text>





	<text
   transform="scale(1.1717508,0.85342376)"
   font-size="27.0179"
   id="text13"
   x="1243.5485"
   y="535.66504"
   style="font-size:31.65824699px;font-family:TimesNewRomanPSMT">Inflow/Accretion</text>





	<text
   transform="scale(1.1717508,0.85342376)"
   font-size="27.0179"
   id="text15"
   x="1240.0182"
   y="712.00555"
   style="font-size:31.65824699px;font-family:TimesNewRomanPSMT">Junction/Node</text>





	<text
   transform="scale(1.1717508,0.85342376)"
   font-size="23.7757"
   id="text17"
   x="1210.9043"
   y="325.7283"
   style="font-size:27.85919571px;font-family:ArialMT">LEGEND</text>





	
		
	
		
	
	
		
	
		<path
   stroke-miterlimit="10"
   d="M 1410.9474,443.11637"
   id="path27"
   inkscape:connector-curvature="0"
   style="fill:#010101;stroke:#010101;stroke-width:0.75;stroke-linejoin:round;stroke-miterlimit:10;stroke-dasharray:4, 2, 4, 2, 4, 2" />
	
		
	
		
	
		
	
		<line
   stroke-miterlimit="10"
   x1="1413.7144"
   y1="490.70837"
   x2="1291.7534"
   y2="490.70837"
   id="line35"
   style="fill:#010101;stroke:#010101;stroke-width:2;stroke-linejoin:round;stroke-miterlimit:10" />
	<path
   stroke-miterlimit="10"
   d="M 1325.7464,487.07137"
   id="path37"
   inkscape:connector-curvature="0"
   style="fill:#010101;stroke:#010101;stroke-width:0.75;stroke-linejoin:round;stroke-miterlimit:10" />
	<path
   stroke-miterlimit="10"
   d="M 1345.5834,487.07137"
   id="path39"
   inkscape:connector-curvature="0"
   style="fill:#010101;stroke:#010101;stroke-width:0.75;stroke-linejoin:round;stroke-miterlimit:10" />
	
	<path
   stroke-miterlimit="10"
   d="M 1325.7464,487.07137"
   id="path43"
   inkscape:connector-curvature="0"
   style="fill:#010101;stroke:#010101;stroke-width:0.75;stroke-linejoin:round;stroke-miterlimit:10" />
	<path
   fill="none"
   stroke="#000000"
   stroke-width="2"
   d="M-93.076,119.686"
   id="path45" />
	<path
   fill="none"
   stroke="#000000"
   stroke-width="2"
   d="M1894.124,119.686"
   id="path47" />
	
		
	
		
	
		
	
		
	<polygon
   fill="#010101"
   stroke="#010101"
   stroke-width="0.0469"
   stroke-linejoin="round"
   stroke-miterlimit="10"
   points="   896.592,549.668 883.524,552.09 889.984,541.389 896.592,549.668  "
   id="polygon57" />
	
		<line
   stroke-miterlimit="10"
   x1="1412.0514"
   y1="445.99646"
   x2="1288.7124"
   y2="445.99646"
   id="line59"
   style="fill:none;stroke:#010101;stroke-width:1.5;stroke-linejoin:round;stroke-miterlimit:10;stroke-dasharray:12, 2.5" />
	
		
	
		
	
		
	
	
	

	
	
	
	

	

	

	

	
		<g
   id="g4303"><title
   id="title3668">AD_Kswick/010</title><line
   id="line55"
   y2="546.391"
   x2="892.575"
   y1="510.521"
   x1="937.964"
   stroke-dasharray="12,2.5"
   stroke-miterlimit="10"
   stroke-linejoin="round"
   stroke-width="1.5"
   stroke="#010101"
   fill="none" /><text
   id="text99"
   font-size="10.0196"
   font-family="'MyriadPro-Regular'"
   fill="#1C75BC"
   transform="matrix(0.8012 -0.6229 0.6849 0.7286 904.2661 549.6494)">AD_Kswck</text>



</g>

	
		

	
		


	
		

	

	
		


	
		

	

	
		

	
		

	
		

	
		

	
		

	
		

	
		
	
		

	

	
		
	
		

	
		
	
		

	
		

	
		
	

	
		
	

	
		

	
		
	
		
	
		

	
		

	

	

	
	

	

	
		
	

	
		

	
		

	

	
		

	

	
		

	
		

	

	
		

	
		

	
		
	
	
		

	
	
		

	
		

	
		

	
		

	
		

	
		

	
		

	
		

	
		

	
		

	
	
		

	
		

	
		

	
		

	
		

	
		

	
		

	
		
	
	
		<line
   stroke-miterlimit="3"
   x1="1412.0514"
   y1="407.27136"
   x2="1288.7124"
   y2="407.27136"
   id="line261"
   style="fill:none;stroke:#010101;stroke-width:1.5;stroke-miterlimit:3;stroke-dasharray:12.5, 2.5, 1, 2.5, 1, 2.5" />
	
		
	
		
	
		<line
   fill="none"
   stroke="#010101"
   stroke-width="1.5"
   stroke-miterlimit="3"
   stroke-dasharray="12.5,2.5,1,2.5,1,2.5"
   x1="888.194"
   y1="841.564"
   x2="789.32"
   y2="841.564"
   id="line267" />
	
		
	
		
	
		
	
	
	
	
		
	
		
	
		
	
		
	
		
	
		
	
		
	
		
	

	

	
		

	
		

	
		

	
	
		

	
		

	
		

	
		

	
		

	
		

	
		

	
		
	
	
	
	
	<g
   id="g4318"><title
   id="title3666">C_Kswck</title><text
   id="text101"
   font-size="10.561"
   transform="matrix(-8.184870e-005 0.9094 -1 -7.000000e-005 879.1641 633.7622)"
   font-family="'MyriadPro-Regular'"
   fill="#1C75BC">C_Kswck</text>



<polygon
   id="polygon365"
   points="873.257,568.815    873.257,820.875 871.562,820.875 871.562,568.815 873.257,568.815  "
   stroke-miterlimit="10"
   stroke-linejoin="round"
   stroke="#010101"
   fill="#010101" /><polygon
   id="polygon367"
   points="879.311,818.792    872.409,830.913 865.616,818.792 879.311,818.792  "
   stroke-miterlimit="10"
   stroke-linejoin="round"
   stroke="#010101"
   fill="#010101" /></g>
	<g
   id="g3658"><title
   id="title3664">C_RedBlf/014</title><text
   id="text109"
   font-size="10.5611"
   font-family="'MyriadPro-Regular'"
   fill="#1C75BC"
   transform="matrix(-0.0055 0.9894 -1 -0.0046 881.1563 891.4565)">C_RedBlf</text>


<polygon
   id="polygon369"
   points="873.257,855.154 873.257,984.5    871.562,984.5 871.562,855.154 873.257,855.154  "
   stroke-miterlimit="10"
   stroke-linejoin="round"
   stroke="#010101"
   fill="#010101" /></g>
	
	
	
	
	
	
	
	
	
	
	
	
	
	
	
	
	
	
	
	
	
		
	
	
	
	
	
	
	
	
	
	
	
	
	
	
	
	
	
	
	
	
	
	
	
	
	
	
	
	
	
	<g
   id="g4264"><title
     id="title3676">I_Wkytn</title><g
     id="g5773"><g
       id="g5767"><line
   id="line51"
   y2="445.153"
   x2="588.742"
   y1="501.796"
   x1="588.742"
   stroke-dasharray="12,2.5"
   stroke-miterlimit="10"
   stroke-linejoin="round"
   stroke-width="1.5"
   stroke="#010101"
   fill="none" /><text
   id="text69"
   font-size="10.561"
   font-family="'MyriadPro-Regular'"
   fill="#1C75BC"
   transform="matrix(0 0.9094 -1 0 598.8076 455.5947)">I_Wkytn</text>




<polygon
   id="polygon469"
   points="589.601,506.791    589.601,507.266 587.904,507.266 587.904,506.791 589.601,506.791  "
   stroke-miterlimit="10"
   stroke-linejoin="round"
   stroke="#010101"
   fill="#010101" /><polygon
   id="polygon471"
   points="595.653,505.184    588.752,517.303 581.959,505.184 595.653,505.184  "
   stroke-miterlimit="10"
   stroke-linejoin="round"
   stroke="#010101"
   fill="#010101" /></g></g></g>
	
	<g
   id="g5752"><title
   id="title3684">C_Trnty/002</title><text
   id="text259"
   font-size="10.561"
   transform="matrix(0 0.9094 -1 0 334.6211 493.2007)"
   font-family="'MyriadPro-Regular'"
   fill="#1C75BC">C_Trnty</text>




<polygon
   id="polygon473"
   points="323.563,481.186    323.372,532.911 321.672,532.911 321.721,481.589 323.563,481.186  "
   stroke-miterlimit="10"
   stroke-linejoin="round"
   stroke="#010101"
   fill="#010101" /><polygon
   id="polygon475"
   points="329.422,531.018    322.203,542.947 315.832,530.732 329.422,531.018  "
   stroke-miterlimit="10"
   stroke-linejoin="round"
   stroke="#010101"
   fill="#010101" /></g>
	
	
	
	
		
	
	
	
	<path
   fill="#010101"
   stroke="#010101"
   stroke-linejoin="round"
   stroke-miterlimit="10"
   d="M858.079,556.884   c-0.107-0.097-0.107-0.189,0-0.285l1.061-4.737c0-0.092,0-0.186,0.107-0.281l2.973-3.79c0-0.094,0.104-0.188,0.211-0.188   l4.246-2.652c0.107-0.094,0.214-0.094,0.319-0.094l5.31-0.945c0.104-0.096,0.212-0.096,0.316,0l5.308,0.945   c0.105,0,0.212,0,0.319,0.094l4.352,2.652c0.108,0,0.215,0.094,0.215,0.188l2.865,3.79c0.105,0.095,0.105,0.189,0.105,0.281   l1.062,4.737c0.106,0.095,0.106,0.188,0,0.285l-1.062,4.735c0,0.092,0,0.189-0.105,0.284l-2.865,3.881   c0,0.095-0.106,0.189-0.215,0.189l-4.352,2.558c-0.107,0.093-0.214,0.093-0.319,0.093l-5.308,0.947   c-0.104,0.095-0.213,0.095-0.316,0l-5.31-0.947c-0.105,0-0.212,0-0.319-0.093l-4.246-2.558c-0.106,0-0.211-0.094-0.211-0.189   l-2.973-3.881c-0.107-0.095-0.107-0.192-0.107-0.284L858.079,556.884z"
   id="path491" />
	<polygon
   stroke-miterlimit="10"
   points="860.733,561.334 860.626,561.05    863.599,564.933 863.386,564.742 867.633,567.3 867.314,567.205 872.622,568.151 872.305,568.151 877.613,567.205 877.293,567.3    881.645,564.742 881.433,564.933 884.299,561.05 884.194,561.334 885.253,556.599 885.253,556.884 884.194,552.15 884.299,552.433    881.433,548.645 881.645,548.834 877.293,546.183 877.613,546.278 872.305,545.329 872.622,545.329 867.314,546.278    867.633,546.183 863.386,548.834 863.599,548.645 860.626,552.433 860.733,552.15 859.67,556.884 859.67,556.599  "
   id="polygon493"
   stroke-linejoin="round"
   stroke="#010101"
   fill="#010101" />
	
	
	
	
	
	
	
	
	
	
	
	
	
	
	
	
	<path
   fill="#010101"
   stroke="#010101"
   stroke-linejoin="round"
   stroke-miterlimit="10"
   d="M858.079,843.223   c-0.107-0.096-0.107-0.191,0-0.285l1.061-4.734c0-0.094,0-0.19,0.107-0.284l2.973-3.788c0-0.094,0.104-0.19,0.211-0.19l4.246-2.651   c0.107-0.093,0.214-0.093,0.319-0.093l5.31-0.949c0.104-0.094,0.212-0.094,0.316,0l5.308,0.949c0.105,0,0.212,0,0.319,0.093   l4.352,2.651c0.108,0,0.215,0.096,0.215,0.19l2.865,3.788c0.105,0.094,0.105,0.19,0.105,0.284l1.062,4.734   c0.106,0.094,0.106,0.189,0,0.285l-1.062,4.734c0,0.096,0,0.189-0.105,0.285l-2.865,3.883c0,0.095-0.106,0.19-0.215,0.19   l-4.352,2.554c-0.107,0.095-0.214,0.095-0.319,0.095l-5.308,0.947c-0.104,0.093-0.213,0.093-0.316,0l-5.31-0.947   c-0.105,0-0.212,0-0.319-0.095l-4.246-2.554c-0.106,0-0.211-0.095-0.211-0.19l-2.973-3.883c-0.107-0.096-0.107-0.189-0.107-0.285   L858.079,843.223z"
   id="path527" />
	<polygon
   fill="#010101"
   stroke="#010101"
   stroke-linejoin="round"
   stroke-miterlimit="10"
   points="860.733,847.672 860.626,847.39    863.599,851.272 863.386,851.082 867.633,853.639 867.314,853.542 872.622,854.491 872.305,854.491 877.613,853.542    877.293,853.639 881.645,851.082 881.433,851.272 884.299,847.39 884.194,847.672 885.253,842.938 885.253,843.223    884.194,838.487 884.299,838.773 881.433,834.985 881.645,835.174 877.293,832.523 877.613,832.619 872.305,831.671    872.622,831.671 867.314,832.619 867.633,832.523 863.386,835.174 863.599,834.985 860.626,838.773 860.733,838.487    859.67,843.223 859.67,842.938  "
   id="polygon529" />
	
	
	
	
	
	
	
	
	
	
	
	
	
	
	
	
	
	<g
   id="g619">
		<text
   transform="matrix(1.1211 0 0 1 902.8003 859.0166)"
   id="text621"><tspan
     x="0"
     y="0"
     fill="#010101"
     font-family="'ArialMT'"
     font-size="19.6953"
     id="tspan623">R</tspan><tspan
     x="13.652"
     y="0"
     fill="#010101"
     font-family="'ArialMT'"
     font-size="19.6953"
     id="tspan625">e</tspan><tspan
     x="24.271"
     y="0"
     fill="#010101"
     font-family="'ArialMT'"
     font-size="19.6953"
     letter-spacing="0.892"
     id="tspan627">d</tspan><tspan
     x="36.386"
     y="0"
     fill="#010101"
     font-family="'ArialMT'"
     font-size="19.6953"
     letter-spacing="-0.892"
     id="tspan629"> </tspan><tspan
     x="40.932"
     y="0"
     fill="#010101"
     font-family="'ArialMT'"
     font-size="19.6953"
     id="tspan631">B</tspan><tspan
     x="54.562"
     y="0"
     fill="#010101"
     font-family="'ArialMT'"
     font-size="19.6953"
     id="tspan633">l</tspan><tspan
     x="59.094"
     y="0"
     fill="#010101"
     font-family="'ArialMT'"
     font-size="19.6953"
     id="tspan635">u</tspan><tspan
     x="69.713"
     y="0"
     fill="#010101"
     font-family="'ArialMT'"
     font-size="19.6953"
     letter-spacing="1.784"
     id="tspan637">f</tspan><tspan
     x="77.273"
     y="0"
     fill="#010101"
     font-family="'ArialMT'"
     font-size="19.6953"
     id="tspan639">f</tspan></text>





		<rect
   x="889.396"
   y="835.677"
   fill-rule="evenodd"
   clip-rule="evenodd"
   fill="none"
   width="118.896"
   height="33.331"
   id="rect641" />
	</g>
	<g
   id="g643">
		<text
   transform="matrix(1.1211 0 0 1 898.6294 569.749)"
   id="text645"><tspan
     x="0"
     y="0"
     fill="#010101"
     font-family="'ArialMT'"
     font-size="19.6953"
     id="tspan647">K</tspan><tspan
     x="13.628"
     y="0"
     fill="#010101"
     font-family="'ArialMT'"
     font-size="19.6953"
     id="tspan649">e</tspan><tspan
     x="24.247"
     y="0"
     fill="#010101"
     font-family="'ArialMT'"
     font-size="19.6953"
     id="tspan651">s</tspan><tspan
     x="34.843"
     y="0"
     fill="#010101"
     font-family="'ArialMT'"
     font-size="19.6953"
     id="tspan653">w</tspan><tspan
     x="48.495"
     y="0"
     fill="#010101"
     font-family="'ArialMT'"
     font-size="19.6953"
     id="tspan655">i</tspan><tspan
     x="53.028"
     y="0"
     fill="#010101"
     font-family="'ArialMT'"
     font-size="19.6953"
     id="tspan657">c</tspan><tspan
     x="63.623"
     y="0"
     fill="#010101"
     font-family="'ArialMT'"
     font-size="19.6953"
     id="tspan659">k</tspan></text>





		<rect
   x="882.6"
   y="544.793"
   fill-rule="evenodd"
   clip-rule="evenodd"
   fill="none"
   width="108.707"
   height="54.539"
   id="rect661" />
	</g>
	<g
   id="g3537"><title
     id="title3674">D_Spring/006</title><g
     id="g4298"><text
   transform="matrix(1.0996 0 0 1 706.1504 569.9209)"
   fill="#1C75BC"
   font-family="'MyriadPro-Regular'"
   font-size="9.6045"
   id="text85">D_Spring</text>



<line
   fill="none"
   stroke="#010101"
   stroke-width="1.5"
   stroke-miterlimit="3"
   stroke-dasharray="12.5,2.5,1,2.5,1,2.5"
   x1="847.811"
   y1="555.296"
   x2="616.813"
   y2="555.296"
   id="line265" /><polygon
   fill="#010101"
   stroke="#010101"
   stroke-linejoin="round"
   stroke-miterlimit="10"
   points="845.338,550.634    858.822,556.694 845.232,562.754 845.338,550.634  "
   id="polygon363" /></g><g
     id="g663">
		<text
   id="text665"
   transform="matrix(1.1211 0 0 1 644.6206 539.3613)"><tspan
     id="tspan667"
     font-size="19.6953"
     font-family="'ArialMT'"
     fill="#010101"
     y="0"
     x="0">S</tspan><tspan
     id="tspan669"
     letter-spacing="0.892"
     font-size="19.6953"
     font-family="'ArialMT'"
     fill="#010101"
     y="0"
     x="13.629">p</tspan><tspan
     id="tspan671"
     font-size="19.6953"
     font-family="'ArialMT'"
     fill="#010101"
     y="0"
     x="25.745">r</tspan><tspan
     id="tspan673"
     font-size="19.6953"
     font-family="'ArialMT'"
     fill="#010101"
     y="0"
     x="31.811">i</tspan><tspan
     id="tspan675"
     font-size="19.6953"
     font-family="'ArialMT'"
     fill="#010101"
     y="0"
     x="36.344">n</tspan><tspan
     id="tspan677"
     letter-spacing="0.892"
     font-size="19.6953"
     font-family="'ArialMT'"
     fill="#010101"
     y="0"
     x="46.963">g</tspan><tspan
     id="tspan679"
     letter-spacing="-0.892"
     font-size="19.6953"
     font-family="'ArialMT'"
     fill="#010101"
     y="0"
     x="59.078"> </tspan><tspan
     id="tspan681"
     font-size="19.6953"
     font-family="'ArialMT'"
     fill="#010101"
     y="0"
     x="63.625">C</tspan><tspan
     id="tspan683"
     font-size="19.6953"
     font-family="'ArialMT'"
     fill="#010101"
     y="0"
     x="77.277">r</tspan><tspan
     id="tspan685"
     font-size="19.6953"
     font-family="'ArialMT'"
     fill="#010101"
     y="0"
     x="83.343"> </tspan><tspan
     id="tspan687"
     letter-spacing="-0.892"
     font-size="19.6953"
     font-family="'ArialMT'"
     fill="#010101"
     y="0"
     x="89.386">T</tspan><tspan
     id="tspan689"
     font-size="19.6953"
     font-family="'ArialMT'"
     fill="#010101"
     y="0"
     x="99.999">unne</tspan><tspan
     id="tspan691"
     font-size="19.6953"
     font-family="'ArialMT'"
     fill="#010101"
     y="0"
     x="142.473">l</tspan></text>





		<rect
   id="rect693"
   height="27.271"
   width="197.031"
   fill="none"
   clip-rule="evenodd"
   fill-rule="evenodd"
   y="516.006"
   x="631.217" />
	</g></g>
	
	
	<g
   id="g3635"><title
     id="title3652">C_Wkytn/007</title><polygon
     id="polygon477"
     points="589.391,591.066    854.789,826.368 853.62,827.409 588.223,592.107 589.391,591.066  "
     stroke-miterlimit="10"
     stroke-linejoin="round"
     stroke="#010101"
     fill="#010101" /><g
     id="g3559"><text
   transform="matrix(0.7739 0.6621 -0.719 0.695 686.4155 663.2012)"
   fill="#1C75BC"
   font-family="'MyriadPro-Regular'"
   font-size="9.9916"
   id="text103">C_Wkytn</text>


<g
   id="g749">
		<text
   transform="matrix(1.1211 0 0 1 571.5825 704.499)"
   id="text751"><tspan
     x="0"
     y="0"
     fill="#010101"
     font-family="'ArialMT'"
     font-size="19.6953"
     id="tspan753">C</tspan><tspan
     x="13.652"
     y="0"
     fill="#010101"
     font-family="'ArialMT'"
     font-size="19.6953"
     id="tspan755">l</tspan><tspan
     x="18.185"
     y="0"
     fill="#010101"
     font-family="'ArialMT'"
     font-size="19.6953"
     id="tspan757">ea</tspan><tspan
     x="39.423"
     y="0"
     fill="#010101"
     font-family="'ArialMT'"
     font-size="19.6953"
     id="tspan759">r</tspan><tspan
     x="45.489"
     y="0"
     fill="#010101"
     font-family="'ArialMT'"
     font-size="19.6953"
     letter-spacing="1.784"
     id="tspan761"> </tspan><tspan
     x="53.049"
     y="0"
     fill="#010101"
     font-family="'ArialMT'"
     font-size="19.6953"
     id="tspan763">C</tspan><tspan
     x="66.701"
     y="0"
     fill="#010101"
     font-family="'ArialMT'"
     font-size="19.6953"
     id="tspan765">r</tspan><tspan
     x="72.767"
     y="0"
     fill="#010101"
     font-family="'ArialMT'"
     font-size="19.6953"
     id="tspan767">ee</tspan><tspan
     x="94.004"
     y="0"
     fill="#010101"
     font-family="'ArialMT'"
     font-size="19.6953"
     id="tspan769">k</tspan></text>





		<rect
   x="558.179"
   y="681.146"
   fill-rule="evenodd"
   clip-rule="evenodd"
   fill="none"
   width="147.773"
   height="57.571"
   id="rect771" />
	</g></g></g>
	<g
   id="g773"><title
   id="title3678">D_ClearTu/004</title>
		<g
   id="g3519"><g
   id="g5762"><text
   transform="matrix(1.0996 0 0 1 400.2153 568.3203)"
   fill="#1C75BC"
   font-family="'MyriadPro-Regular'"
   font-size="9.6045"
   id="text83">D_ClearTu</text>




<line
   fill="none"
   stroke="#010101"
   stroke-width="1.5"
   stroke-miterlimit="3"
   stroke-dasharray="12.5,2.5,1,2.5,1,2.5"
   x1="555.824"
   y1="554.896"
   x2="338.763"
   y2="556.497"
   id="line263" /><polygon
   fill="#010101"
   stroke="#010101"
   stroke-linejoin="round"
   stroke-miterlimit="10"
   points="553.083,549.121    566.672,555.177 553.083,561.334 553.083,549.121  "
   id="polygon361" /></g><text
   id="text775"
   transform="matrix(1.1211 0 0 1 364.3618 542.375)"><tspan
     id="tspan777"
     font-size="19.6953"
     font-family="'ArialMT'"
     fill="#010101"
     y="0"
     x="0">C</tspan><tspan
     id="tspan779"
     font-size="19.6953"
     font-family="'ArialMT'"
     fill="#010101"
     y="0"
     x="13.652">l</tspan><tspan
     id="tspan781"
     font-size="19.6953"
     font-family="'ArialMT'"
     fill="#010101"
     y="0"
     x="18.185">ea</tspan><tspan
     id="tspan783"
     font-size="19.6953"
     font-family="'ArialMT'"
     fill="#010101"
     y="0"
     x="39.423">r</tspan><tspan
     id="tspan785"
     letter-spacing="1.784"
     font-size="19.6953"
     font-family="'ArialMT'"
     fill="#010101"
     y="0"
     x="45.489"> </tspan><tspan
     id="tspan787"
     font-size="19.6953"
     font-family="'ArialMT'"
     fill="#010101"
     y="0"
     x="53.049">C</tspan><tspan
     id="tspan789"
     font-size="19.6953"
     font-family="'ArialMT'"
     fill="#010101"
     y="0"
     x="66.701">r</tspan><tspan
     id="tspan791"
     font-size="19.6953"
     font-family="'ArialMT'"
     fill="#010101"
     y="0"
     x="72.767"> </tspan><tspan
     id="tspan793"
     letter-spacing="-0.892"
     font-size="19.6953"
     font-family="'ArialMT'"
     fill="#010101"
     y="0"
     x="78.81">T</tspan><tspan
     id="tspan795"
     font-size="19.6953"
     font-family="'ArialMT'"
     fill="#010101"
     y="0"
     x="89.423">unne</tspan><tspan
     id="tspan797"
     font-size="19.6953"
     font-family="'ArialMT'"
     fill="#010101"
     y="0"
     x="131.897">l</tspan></text>


</g>


		<rect
   x="350.957"
   y="519.037"
   fill-rule="evenodd"
   clip-rule="evenodd"
   fill="none"
   width="186.838"
   height="34.846"
   id="rect799" />
	</g>
	
	
	
	
	
	
	
	
	
	
	
	
	<g
   id="g1013">
	</g>
	
	
	
	
	
	
	<g
   id="g3598"><title
     id="title3670">S_Shasta/009</title><g
     id="g4285"><text
   transform="matrix(1.0996 0 0 1 859.1646 456.6289)"
   id="text89"><tspan
     x="0"
     y="0"
     fill="#1C75BC"
     font-family="'MyriadPro-Regular'"
     font-size="8.8041"
     id="tspan91">S_Shsta</tspan><tspan
     x="0.004"
     y="10.565"
     fill="#1C75BC"
     font-family="'MyriadPro-Regular'"
     font-size="8.8041"
     id="tspan93">E_Shsta</tspan><tspan
     x="-0.524"
     y="21.13"
     fill="#1C75BC"
     font-family="'MyriadPro-Regular'"
     font-size="8.8041"
     id="tspan95">A_Shsta</tspan></text>



<polygon
   fill="none"
   stroke="#010101"
   stroke-linejoin="round"
   stroke-miterlimit="10"
   points="829.014,490.414 873.258,416.078    917.612,490.414 829.014,490.414  "
   id="polygon383" /><polygon
   fill="none"
   stroke="#010101"
   stroke-linejoin="round"
   stroke-miterlimit="10"
   points="916.572,489.275 915.83,490.411    872.517,417.69 874.109,417.69 830.796,490.411 829.945,489.275 916.572,489.275  "
   id="polygon385" /></g><g
     id="g1137">
		<text
   id="text1139"
   transform="matrix(1.1211 0 0 1 940.1509 469.6709)"><tspan
     id="tspan1141"
     font-size="19.6953"
     font-family="'Arial-BoldMT'"
     fill="#010101"
     y="0"
     x="0">S</tspan><tspan
     id="tspan1143"
     font-size="19.6953"
     font-family="'Arial-BoldMT'"
     fill="#010101"
     y="0"
     x="13.629">h</tspan><tspan
     id="tspan1145"
     font-size="19.6953"
     font-family="'Arial-BoldMT'"
     fill="#010101"
     y="0"
     x="25.739">as</tspan><tspan
     id="tspan1147"
     font-size="19.6953"
     font-family="'Arial-BoldMT'"
     fill="#010101"
     y="0"
     x="46.976">t</tspan><tspan
     id="tspan1149"
     font-size="19.6953"
     font-family="'Arial-BoldMT'"
     fill="#010101"
     y="0"
     x="53.043">a</tspan></text>





		<rect
   id="rect1151"
   height="34.847"
   width="100.211"
   fill="none"
   clip-rule="evenodd"
   fill-rule="evenodd"
   y="446.316"
   x="926.764" />
	</g></g>
	
	
	<g
   id="g3615"><title
     id="title3654">S_Wkytn/005</title><g
     id="g4272"><text
   transform="matrix(1.0996 0 0 1 572.4663 556.8984)"
   id="text71"><tspan
     x="0"
     y="0"
     fill="#1C75BC"
     font-family="'MyriadPro-Regular'"
     font-size="7.2034"
     id="tspan73">S_Wkytn</tspan><tspan
     x="0.004"
     y="8.644"
     fill="#1C75BC"
     font-family="'MyriadPro-Regular'"
     font-size="7.2034"
     id="tspan75">E_Wkytn</tspan><tspan
     x="-0.428"
     y="17.288"
     fill="#1C75BC"
     font-family="'MyriadPro-Regular'"
     font-size="7.2034"
     id="tspan77">A_Wkytn</tspan></text>



<polygon
   fill="none"
   stroke="#010101"
   stroke-linejoin="round"
   stroke-miterlimit="10"
   points="543.667,591.914 588.753,516.075    633.945,591.914 543.667,591.914  "
   id="polygon379" /><polygon
   fill="none"
   stroke="#010101"
   stroke-linejoin="round"
   stroke-miterlimit="10"
   points="632.916,590.782 632.173,591.917    588.009,517.68 589.601,517.68 545.439,591.917 544.591,590.782 632.916,590.782  "
   id="polygon381" /></g><g
     id="g1209">
		<text
   id="text1211"
   transform="matrix(1.1211 0 0 1 427.2065 616.6113)"><tspan
     id="tspan1213"
     font-size="19.6953"
     font-family="'Arial-BoldMT'"
     fill="#010101"
     y="0"
     x="0">W</tspan><tspan
     id="tspan1215"
     font-size="19.6953"
     font-family="'Arial-BoldMT'"
     fill="#010101"
     y="0"
     x="18.196">h</tspan><tspan
     id="tspan1217"
     font-size="19.6953"
     font-family="'Arial-BoldMT'"
     fill="#010101"
     y="0"
     x="30.305">i</tspan><tspan
     id="tspan1219"
     font-size="19.6953"
     font-family="'Arial-BoldMT'"
     fill="#010101"
     y="0"
     x="36.348">skey</tspan><tspan
     id="tspan1221"
     font-size="19.6953"
     font-family="'Arial-BoldMT'"
     fill="#010101"
     y="0"
     x="78.823">t</tspan><tspan
     id="tspan1223"
     font-size="19.6953"
     font-family="'Arial-BoldMT'"
     fill="#010101"
     y="0"
     x="84.889">o</tspan><tspan
     id="tspan1225"
     font-size="19.6953"
     font-family="'Arial-BoldMT'"
     fill="#010101"
     y="0"
     x="96.998">w</tspan><tspan
     id="tspan1227"
     font-size="19.6953"
     font-family="'Arial-BoldMT'"
     fill="#010101"
     y="0"
     x="112.16">n</tspan></text>





		<rect
   id="rect1229"
   height="30.299"
   width="171.555"
   fill="none"
   clip-rule="evenodd"
   fill-rule="evenodd"
   y="593.274"
   x="413.802" />
	</g></g>
	
	
	
	
	
		
	
	<g
   id="g4312"><title
   id="title3656">AD_RedBlf/012</title><text
   id="text105"
   font-size="10.274"
   font-family="'MyriadPro-Regular'"
   fill="#1C75BC"
   transform="matrix(0.5724 -0.7765 0.8538 0.5205 908.7759 816.5952)">AD_RedBlf</text>



<line
   id="line147"
   y2="763.184"
   x2="932.27"
   y1="820.99"
   x1="891.197"
   stroke-dasharray="12,2.5"
   stroke-miterlimit="10"
   stroke-linejoin="round"
   stroke-width="1.5"
   stroke="#010101"
   fill="none" /><polygon
   id="polygon1257"
   points="887.803,822.676 887.06,824.663    885.467,824.189 886.21,822.203 887.803,822.676  "
   stroke-miterlimit="10"
   stroke-linejoin="round"
   stroke="#010101"
   fill="#010101" /><polygon
   id="polygon1259"
   points="894.017,826.143    880.793,832.623 882.788,819.27 894.017,826.143  "
   stroke-miterlimit="10"
   stroke-linejoin="round"
   stroke="#010101"
   fill="#010101" /></g>
	
	
	
	
	
	
	
	
	
	
	
	
	
	
	
	
	
	
	
	
	
	
	
	
	
	
	
	
	
	<g
   id="g4307"><title
   id="title3662">D:RedBlf/013</title><text
   id="text107"
   font-size="9.6045"
   font-family="'MyriadPro-Regular'"
   fill="#1C75BC"
   transform="matrix(1.0996 0 0 1 809.144 854.6367)">D_RedBlf</text>



<polygon
   id="polygon479"
   points="857.442,821.16 862.219,833.942    847.78,829.776 857.442,821.16  "
   stroke-miterlimit="10"
   stroke-linejoin="round"
   stroke="#010101"
   fill="#010101" /><polygon
   id="polygon1375"
   points="789.074,849.378    775.592,843.032 789.392,837.257 789.074,849.378  "
   stroke-miterlimit="10"
   stroke-linejoin="round"
   stroke="#010101"
   fill="#010101" /></g>
	<path
   fill="#010101"
   stroke="#010101"
   stroke-linejoin="round"
   stroke-miterlimit="10"
   d="M307.75,555.368   c-0.105-0.096-0.105-0.191,0-0.285l1.06-4.735c0-0.094,0-0.189,0.109-0.284l2.972-3.786c0-0.096,0.105-0.191,0.211-0.191   l4.247-2.652c0.107-0.091,0.211-0.091,0.318-0.091l5.308-0.949c0.105-0.096,0.214-0.096,0.319,0l5.309,0.949   c0.104,0,0.211,0,0.317,0.091l4.352,2.652c0.107,0,0.214,0.095,0.214,0.191l2.865,3.786c0.105,0.095,0.105,0.19,0.105,0.284   l1.063,4.735c0.105,0.094,0.105,0.189,0,0.285l-1.063,4.732c0,0.097,0,0.191-0.105,0.286l-2.865,3.882   c0,0.096-0.107,0.191-0.214,0.191l-4.352,2.555c-0.105,0.094-0.212,0.094-0.317,0.094l-5.309,0.948   c-0.105,0.093-0.214,0.093-0.319,0l-5.308-0.948c-0.106,0-0.211,0-0.318-0.094l-4.247-2.555c-0.106,0-0.211-0.095-0.211-0.191   l-2.972-3.882c-0.109-0.095-0.109-0.189-0.109-0.286L307.75,555.368z"
   id="path1377" />
	<polygon
   fill="#010101"
   stroke="#010101"
   stroke-linejoin="round"
   stroke-miterlimit="10"
   points="310.404,559.818    310.296,559.535 313.27,563.416 313.059,563.226 317.304,565.784 316.985,565.69 322.293,566.636 321.974,566.636 327.283,565.69    326.963,565.784 331.318,563.226 331.105,563.416 333.972,559.535 333.864,559.818 334.926,555.083 334.926,555.368    333.864,550.634 333.972,550.917 331.105,547.129 331.318,547.318 326.963,544.669 327.283,544.762 321.974,543.816    322.293,543.816 316.985,544.762 317.304,544.669 313.059,547.318 313.27,547.129 310.296,550.917 310.404,550.634    309.342,555.368 309.342,555.083  "
   id="polygon1379" />
	<g
   id="g1381">
		<text
   transform="matrix(1.1211 0 0 1 218.2681 589.3574)"
   id="text1383"><tspan
     x="0"
     y="0"
     fill="#010101"
     font-family="'ArialMT'"
     font-size="19.6953"
     id="tspan1385">Le</tspan><tspan
     x="21.237"
     y="0"
     fill="#010101"
     font-family="'ArialMT'"
     font-size="19.6953"
     id="tspan1387">w</tspan><tspan
     x="34.89"
     y="0"
     fill="#010101"
     font-family="'ArialMT'"
     font-size="19.6953"
     id="tspan1389">i</tspan><tspan
     x="39.423"
     y="0"
     fill="#010101"
     font-family="'ArialMT'"
     font-size="19.6953"
     id="tspan1391">s</tspan><tspan
     x="50.019"
     y="0"
     fill="#010101"
     font-family="'ArialMT'"
     font-size="19.6953"
     id="tspan1393">t</tspan><tspan
     x="56.062"
     y="0"
     fill="#010101"
     font-family="'ArialMT'"
     font-size="19.6953"
     letter-spacing="0.892"
     id="tspan1395">o</tspan><tspan
     x="68.178"
     y="0"
     fill="#010101"
     font-family="'ArialMT'"
     font-size="19.6953"
     id="tspan1397">n</tspan></text>





		<rect
   x="204.881"
   y="566.002"
   fill-rule="evenodd"
   clip-rule="evenodd"
   fill="none"
   width="115.502"
   height="51.511"
   id="rect1399" />
	</g>
	
	<g
   id="g5757"><title
   id="title3680">C_Lwstn/003</title><text
   id="text81"
   font-size="10.561"
   font-family="'MyriadPro-Regular'"
   fill="#1C75BC"
   transform="matrix(0 0.9094 -1 0 335.0781 580.1509)">C_Lwstn</text>




<polygon
   id="polygon1401"
   points="322.93,567.3 322.93,651.194    321.232,651.194 321.232,567.3 322.93,567.3  "
   stroke-miterlimit="10"
   stroke-linejoin="round"
   stroke="#010101"
   fill="#010101" /><polygon
   id="polygon1403"
   points="328.98,649.109 322.08,661.229    315.288,649.109 328.98,649.109  "
   stroke-miterlimit="10"
   stroke-linejoin="round"
   stroke="#010101"
   fill="#010101" /></g>
	
	
	
	
	
	
	
	
	
	
	
	
	
	<g
   id="g4293"><text
   id="text97"
   font-size="10.561"
   font-family="'MyriadPro-Regular'"
   fill="#1C75BC"
   transform="matrix(0 0.9094 -1 0 882.5674 494.4375)">C_Shsta</text>



<polygon
   id="polygon1485"
   points="873.617,490.123    873.578,536.051 871.877,536.063 871.961,490.119 874.957,490.129  "
   stroke-miterlimit="10"
   stroke-linejoin="round"
   stroke="#010101"
   fill="#010101" /><polygon
   id="polygon1487"
   points="879.621,532.073    872.403,544.002 866.032,531.788 879.621,532.073  "
   stroke-miterlimit="10"
   stroke-linejoin="round"
   stroke="#010101"
   fill="#010101" /></g>
	<polygon
   stroke-miterlimit="10"
   points="1350.142,2910.8 1306.831,2838.078 1308.425,2838.078 1265.11,2910.8 1264.261,2909.664 1350.891,2909.664 1350.891,2909.664 "
   id="polygon1489"
   transform="translate(42.426406,-2534.2706)"
   style="fill:none;stroke:#010101;stroke-linejoin:round;stroke-miterlimit:10" />
	<polygon
   stroke-miterlimit="10"
   points="1383.158,2942.018 1367.546,2947.984 1367.789,2935.861 1367.789,2935.861 "
   id="polygon1491"
   transform="translate(42.426406,-2534.2706)"
   style="fill:#010101;stroke:#010101;stroke-linejoin:round;stroke-miterlimit:10" />
	<polygon
   stroke-miterlimit="10"
   points="1377.231,2980.458 1377.231,2981.975 1372.791,2981.881 1372.791,2980.365 1372.791,2980.365 "
   id="polygon1493"
   transform="translate(42.426406,-2534.2706)"
   style="fill:#010101;stroke:#010101;stroke-linejoin:round;stroke-miterlimit:10" />
	<polygon
   stroke-miterlimit="10"
   points="1386.422,2981.312 1371.333,2987.277 1371.568,2975.159 1371.568,2975.159 "
   id="polygon1495"
   transform="translate(42.426406,-2534.2706)"
   style="fill:#010101;stroke:#010101;stroke-linejoin:round;stroke-miterlimit:10" />
	<polygon
   stroke-miterlimit="10"
   points="1383.708,3024.338 1370.121,3030.303 1370.227,3018.182 1370.227,3018.182 "
   id="polygon1497"
   transform="translate(42.426406,-2534.2706)"
   style="fill:#010101;stroke:#010101;stroke-linejoin:round;stroke-miterlimit:10" />
	<path
   stroke-miterlimit="10"
   d="m 1341.0134,602.35237 c -0.109,-0.093 -0.109,-0.188 0,-0.283 l 1.062,-4.733 c 0,-0.097 0,-0.191 0.104,-0.288 l 2.975,-3.788 c 0,-0.088 0.104,-0.188 0.214,-0.188 l 4.245,-2.652 c 0.104,-0.095 0.213,-0.095 0.316,-0.095 l 5.309,-0.946 c 0.108,-0.095 0.213,-0.095 0.319,0 l 5.307,0.946 c 0.106,0 0.213,0 0.317,0.095 l 4.353,2.652 c 0.11,0 0.214,0.1 0.214,0.188 l 2.867,3.788 c 0.107,0.097 0.107,0.191 0.107,0.288 l 1.062,4.733 c 0.101,0.096 0.101,0.19 0,0.283 l -1.062,4.732 c 0,0.101 0,0.189 -0.107,0.285 l -2.867,3.881 c 0,0.097 -0.104,0.191 -0.214,0.191 l -4.353,2.557 c -0.104,0.095 -0.211,0.095 -0.317,0.095 l -5.307,0.945 c -0.106,0.098 -0.211,0.098 -0.319,0 l -5.309,-0.945 c -0.104,0 -0.213,0 -0.316,-0.095 l -4.245,-2.557 c -0.11,0 -0.214,-0.095 -0.214,-0.191 l -2.975,-3.881 c -0.104,-0.096 -0.104,-0.185 -0.104,-0.285 l -1.062,-4.732 z"
   id="path1499"
   inkscape:connector-curvature="0"
   style="fill:#010101;stroke:#010101;stroke-linejoin:round;stroke-miterlimit:10" />
	<polygon
   stroke-miterlimit="10"
   points="1301.133,3140.788 1304.108,3144.673 1303.891,3144.481 1308.138,3147.038 1307.823,3146.941 1313.13,3147.892 1312.811,3147.892 1318.117,3146.941 1317.801,3147.038 1322.155,3144.481 1321.944,3144.673 1324.807,3140.788 1324.701,3141.073 1325.763,3136.34 1325.763,3136.623 1324.701,3131.891 1324.807,3132.172 1321.944,3128.388 1322.155,3128.576 1317.801,3125.92 1318.117,3126.018 1312.811,3125.071 1313.13,3125.071 1307.823,3126.018 1308.138,3125.92 1303.891,3128.576 1304.108,3128.388 1301.133,3132.172 1301.243,3131.891 1300.178,3136.623 1300.178,3136.34 1301.243,3141.073 "
   id="polygon1501"
   transform="translate(42.426406,-2534.2706)"
   style="fill:#010101;stroke:#010101;stroke-linejoin:round;stroke-miterlimit:10" />
	
	
		
	
	
		

	
		

	
		

	
		

	
		

	
		

	
		

	

	
		
	
		
	
		
	
	
	
		
	
		
	
		
	
	
		
	
	

	

	
		

	
		

	
		
	
		
	
		
	
		
	
		
	
		
	
		
	
		
	
		
	
		
	
		
	

	

	

	
	
	
	
	
	
	
	
		
	
		
	
		
	
		
	
		
	
		
	
	
	
	
	
	
	
		
	
	

	

	

	

	

	

	

	

	

	

	

	
		
	
	

	
		
	
	

	
		
	
		
	
	
	

	

	

	

	

	

	

	
		<rect
   x="1236.5724"
   y="228.74036"
   stroke-miterlimit="3"
   width="557.76898"
   height="411.508"
   id="rect1703"
   style="fill:none;stroke:#000000;stroke-width:4;stroke-miterlimit:3" />
	<text
   transform="matrix(0.8826 0 0 1 665.5073 146.5142)"
   id="text1705"><tspan
     x="0"
     y="0"
     font-family="'MyriadPro-Semibold'"
     font-size="47.8612"
     id="tspan1707">WRIMS CalLite Schematic</tspan><tspan
     x="93.759"
     y="57.434"
     font-family="'MyriadPro-Semibold'"
     font-size="47.8612"
     id="tspan1709">August 30, 2010</tspan></text>





	
		
	

	
	

	

	
		
	<rect
   x="824.076"
   y="263.159"
   fill="none"
   width="154.896"
   height="0"
   id="rect1729" />
	
		
	

	
		
	
		
	

	
	

	

	
		
	
		
	
	

	

	

	
		
	
		
	
	

	

	
	
	

	

	

	
	
	
	
	
	
		
	
	
		
	
		

	

	
		

	
		
	
	
		
	
	
		

	
	
	

	
	
		
	
	
	
		
	
	
	
	

	
	
		
	
	

	

	
	
	
	
	
	
	
	
	
	
		
	
	
	
	

	

	
		

	
		
	
	
		

	
		
	
	
		
	
		

	
	
	
	
	
		

	
		

	
		

	
		
	
		

	
	
		
	
	
		

	
		
	
	
		

	
	
	
	
	
		
	
		

	
		
	
		
	
	
		

	

	

	
		

	
		

	

	
		

	
		

	
	
	
	
		
	
		
	
		
	
		
	
		
	
	
	
	
	
	
		
	
		
	
	
	

	
	
		
	
	
	

	

	
	
		
	
	
		
	
		

	
	
		

	
		
	
	
		

	
	

	
		
	
	

	
	
		
	

	
		
	
	
	

	
		
	
	
		

	

	
		
	
	
	
		
	
	<g
   id="g5708"><title
   id="title3682">I_Lwstn</title><text
   id="text79"
   font-size="9.6045"
   font-family="'MyriadPro-Regular'"
   fill="#1C75BC"
   transform="matrix(1.0996 0 0 1 239.4453 544.7939)">I_Lewiston</text>




<line
   id="line207"
   y2="554.055"
   x2="233.21"
   y1="554.401"
   x1="295.658"
   stroke-dasharray="12,2.5"
   stroke-miterlimit="10"
   stroke-linejoin="round"
   stroke-width="1.5"
   stroke="#010101"
   fill="none" /><polygon
   id="polygon2205"
   points="295.658,547.776    309.247,553.833 295.658,559.989 295.658,547.776  "
   stroke-miterlimit="10"
   stroke-linejoin="round"
   stroke="#010101"
   fill="#010101" /></g>
	
	
		
	
		
	
	
	

	
	
	

	

	

	
		

	
		

	
		
	
	
		
	
	
		
	
	
		
	
	
	
		

	
		

	

	
		
	
	
		

	
		
	
	

	
		

	
		
	
	
		
	

	

	
	<g
   id="g5713"><title
   id="title3688">I_Trnty</title><line
   id="line49"
   y2="340.07"
   x2="323.49"
   y1="396.861"
   x1="323.49"
   stroke-dasharray="12,2.5"
   stroke-miterlimit="10"
   stroke-linejoin="round"
   stroke-width="1.5"
   stroke="#010101"
   fill="none" /><text
   id="text67"
   font-size="10.561"
   font-family="'MyriadPro-Regular'"
   fill="#1C75BC"
   transform="matrix(0 0.9094 -1 0 344.3013 353.6792)">I_Trnty</text>




<g
   id="g559">
		<text
   id="text561"
   transform="matrix(1.1211 0 0 1 268.0786 334.4912)"><tspan
     id="tspan563"
     letter-spacing="-0.892"
     font-size="19.6953"
     font-family="'ArialMT'"
     fill="#010101"
     y="0"
     x="0">T</tspan><tspan
     id="tspan565"
     font-size="19.6953"
     font-family="'ArialMT'"
     fill="#010101"
     y="0"
     x="10.612">r</tspan><tspan
     id="tspan567"
     font-size="19.6953"
     font-family="'ArialMT'"
     fill="#010101"
     y="0"
     x="16.678">i</tspan><tspan
     id="tspan569"
     font-size="19.6953"
     font-family="'ArialMT'"
     fill="#010101"
     y="0"
     x="21.212">n</tspan><tspan
     id="tspan571"
     font-size="19.6953"
     font-family="'ArialMT'"
     fill="#010101"
     y="0"
     x="31.83">i</tspan><tspan
     id="tspan573"
     font-size="19.6953"
     font-family="'ArialMT'"
     fill="#010101"
     y="0"
     x="36.364">t</tspan><tspan
     id="tspan575"
     font-size="19.6953"
     font-family="'ArialMT'"
     fill="#010101"
     y="0"
     x="42.407">y</tspan><tspan
     id="tspan577"
     font-size="19.6953"
     font-family="'ArialMT'"
     fill="#010101"
     y="0"
     x="53.003"> </tspan><tspan
     id="tspan579"
     font-size="19.6953"
     font-family="'ArialMT'"
     fill="#010101"
     y="0"
     x="59.046">R</tspan><tspan
     id="tspan581"
     font-size="19.6953"
     font-family="'ArialMT'"
     fill="#010101"
     y="0"
     x="72.698">i</tspan><tspan
     id="tspan583"
     font-size="19.6953"
     font-family="'ArialMT'"
     fill="#010101"
     y="0"
     x="77.232">v</tspan><tspan
     id="tspan585"
     font-size="19.6953"
     font-family="'ArialMT'"
     fill="#010101"
     y="0"
     x="87.828">e</tspan><tspan
     id="tspan587"
     font-size="19.6953"
     font-family="'ArialMT'"
     fill="#010101"
     y="0"
     x="98.447">r</tspan></text>





		<rect
   id="rect589"
   height="45.448"
   width="147.774"
   fill="none"
   clip-rule="evenodd"
   fill-rule="evenodd"
   y="317.54"
   x="238.852" />
	</g><polygon
   id="polygon2299"
   points="329.744,396.861 322.844,408.98    316.051,396.861 329.744,396.861  "
   stroke-miterlimit="10"
   stroke-linejoin="round"
   stroke="#010101"
   fill="#010101" /></g>
	
	
	
	
	
	
	
	

	
		

	
		
	
	

	
		
	

	
	
		

	
		
	
		

	
	
		
	
	
		

	
		
	
		
	
		
	<text
   transform="scale(1.1717508,0.85342376)"
   id="text2351"
   x="1241.5216"
   y="623.77753"
   style="font-size:14.06101036px"><tspan
     x="1241.5216"
     y="623.77753"
     font-size="27.0179"
     id="tspan2353"
     style="font-size:31.65824699px;font-family:TimesNewRomanPSMT">River Flow </tspan><tspan
     x="1241.5216"
     y="661.76801"
     font-size="27.0179"
     id="tspan2355"
     style="font-size:31.65824699px;font-family:TimesNewRomanPSMT">(Bi-direction)</tspan></text>





	
		<line
   stroke-miterlimit="10"
   x1="1412.5634"
   y1="524.05945"
   x2="1290.6024"
   y2="524.05945"
   id="line2357"
   style="fill:#010101;stroke:#010101;stroke-width:2;stroke-linejoin:round;stroke-miterlimit:10" />
	<polygon
   stroke-miterlimit="10"
   points="1383.708,3059.988 1370.121,3065.953 1370.227,3053.832 1370.227,3053.832 "
   id="polygon2359"
   transform="translate(42.426406,-2534.2706)"
   style="fill:#010101;stroke:#010101;stroke-linejoin:round;stroke-miterlimit:10" />
	
		<line
   stroke-miterlimit="10"
   x1="1412.7844"
   y1="528.18542"
   x2="1290.8243"
   y2="528.18542"
   id="line2361"
   style="fill:#010101;stroke:#010101;stroke-width:2;stroke-linejoin:round;stroke-miterlimit:10" />
	
	
		

	
		

	
	
	
		
	
	
	
	<g
   id="g3574"><title
     id="title3672">I_Shsta/008</title><g
     transform="translate(-10.606601,-14.142135)"
     id="g325">
		<text
   id="text327"
   transform="matrix(1.1211,0,0,1,802.3506,339.5454)"><tspan
     style="font-size:19.69529915px;fill:#010101;font-family:ArialMT"
     id="tspan329"
     font-size="19.6953"
     y="0"
     x="0">S</tspan><tspan
     style="font-size:19.69529915px;fill:#010101;font-family:ArialMT"
     id="tspan331"
     font-size="19.6953"
     y="0"
     x="13.629">a</tspan><tspan
     style="font-size:19.69529915px;fill:#010101;font-family:ArialMT"
     id="tspan333"
     font-size="19.6953"
     y="0"
     x="24.247999">c</tspan><tspan
     style="font-size:19.69529915px;fill:#010101;font-family:ArialMT"
     id="tspan335"
     font-size="19.6953"
     y="0"
     x="34.844002">r</tspan><tspan
     style="font-size:19.69529915px;fill:#010101;font-family:ArialMT"
     id="tspan337"
     font-size="19.6953"
     y="0"
     x="40.91">a</tspan><tspan
     style="font-size:19.69529915px;fill:#010101;font-family:ArialMT"
     id="tspan339"
     font-size="19.6953"
     y="0"
     x="51.528">m</tspan><tspan
     style="font-size:19.69529915px;fill:#010101;font-family:ArialMT"
     id="tspan341"
     font-size="19.6953"
     y="0"
     x="68.191002">en</tspan><tspan
     style="font-size:19.69529915px;fill:#010101;font-family:ArialMT"
     id="tspan343"
     font-size="19.6953"
     y="0"
     x="89.429001">t</tspan><tspan
     style="font-size:19.69529915px;letter-spacing:0.89200002;fill:#010101;font-family:ArialMT"
     id="tspan345"
     letter-spacing="0.892"
     font-size="19.6953"
     y="0"
     x="95.471001">o</tspan><tspan
     style="font-size:19.69529915px;fill:#010101;font-family:ArialMT"
     id="tspan347"
     font-size="19.6953"
     y="0"
     x="107.587"> </tspan><tspan
     style="font-size:19.69529915px;fill:#010101;font-family:ArialMT"
     id="tspan349"
     font-size="19.6953"
     y="0"
     x="113.63">R</tspan><tspan
     style="font-size:19.69529915px;fill:#010101;font-family:ArialMT"
     id="tspan351"
     font-size="19.6953"
     y="0"
     x="127.282">i</tspan><tspan
     style="font-size:19.69529915px;fill:#010101;font-family:ArialMT"
     id="tspan353"
     font-size="19.6953"
     y="0"
     x="131.815">v</tspan><tspan
     style="font-size:19.69529915px;fill:#010101;font-family:ArialMT"
     id="tspan355"
     font-size="19.6953"
     y="0"
     x="142.41">e</tspan><tspan
     style="font-size:19.69529915px;fill:#010101;font-family:ArialMT"
     id="tspan357"
     font-size="19.6953"
     y="0"
     x="153.02901">r</tspan></text>





		<rect
   style="fill:none"
   id="rect359"
   height="71.205002"
   width="207.22099"
   clip-rule="evenodd"
   y="325.798"
   x="788.96399" />
	</g><g
     id="g4280"><line
   fill="none"
   stroke="#010101"
   stroke-width="1.5"
   stroke-linejoin="round"
   stroke-miterlimit="10"
   stroke-dasharray="12,2.5"
   x1="873.136"
   y1="406.852"
   x2="873.136"
   y2="350.061"
   id="line53" /><text
   transform="matrix(0 0.9094 -1 0 880.8896 361.4009)"
   fill="#1C75BC"
   font-family="'MyriadPro-Regular'"
   font-size="10.561"
   id="text87">I_Shsta</text>



<polygon
   fill="#010101"
   stroke="#010101"
   stroke-linejoin="round"
   stroke-miterlimit="10"
   points="880.264,402.921    873.364,415.041 866.571,402.921 880.264,402.921  "
   id="polygon2393" /></g></g>
	
		
	
		
	
		
	
	
		

	
	
		
	
		

	<g
   id="g5734"><title
   id="title3686">S_Trnty/001</title><text
   id="text209"
   transform="matrix(1.0996 0 0 1 307.8101 446.9668)"><tspan
     id="tspan211"
     font-size="9.6045"
     y="0"
     x="0"
     font-family="'MyriadPro-Regular'"
     fill="#1C75BC">S_Trnty</tspan><tspan
     id="tspan213"
     font-size="9.6045"
     y="11.525"
     x="0"
     font-family="'MyriadPro-Regular'"
     fill="#1C75BC">E_Trnty</tspan><tspan
     id="tspan215"
     font-size="9.6045"
     y="23.051"
     x="0"
     font-family="'MyriadPro-Regular'"
     fill="#1C75BC">A_Trnty</tspan></text>




<polygon
   id="polygon377"
   points="278.236,481.701 322.93,406.61    367.728,481.701 278.236,481.701  "
   stroke-miterlimit="10"
   stroke-linejoin="round"
   stroke="#010101"
   fill="none" /><g
   id="g1117">
		<text
   id="text1119"
   transform="matrix(1.1211 0 0 1 347.3755 436.3232)"><tspan
     id="tspan1121"
     font-size="19.6953"
     y="0"
     x="0"
     font-family="'Arial-BoldMT'"
     fill="#010101">T</tspan><tspan
     id="tspan1123"
     font-size="19.6953"
     y="0"
     x="12.109"
     font-family="'Arial-BoldMT'"
     fill="#010101">r</tspan><tspan
     id="tspan1125"
     font-size="19.6953"
     y="0"
     x="19.695"
     font-family="'Arial-BoldMT'"
     fill="#010101">i</tspan><tspan
     id="tspan1127"
     font-size="19.6953"
     y="0"
     x="25.738"
     font-family="'Arial-BoldMT'"
     fill="#010101">n</tspan><tspan
     id="tspan1129"
     font-size="19.6953"
     y="0"
     x="37.848"
     font-family="'Arial-BoldMT'"
     fill="#010101">i</tspan><tspan
     id="tspan1131"
     font-size="19.6953"
     y="0"
     x="43.891"
     font-family="'Arial-BoldMT'"
     fill="#010101">t</tspan><tspan
     id="tspan1133"
     font-size="19.6953"
     y="0"
     x="49.957"
     font-family="'Arial-BoldMT'"
     fill="#010101">y</tspan></text>





		<rect
   id="rect1135"
   height="33.331"
   width="95.116"
   clip-rule="evenodd"
   y="412.985"
   x="333.972"
   fill-rule="evenodd"
   fill="none" />
	</g><polygon
   id="polygon2411"
   points="276.922,482.449 322.51,405.856    368.204,482.449 276.922,482.449  "
   stroke-miterlimit="10"
   stroke-linejoin="round"
   stroke="#010101"
   fill="none" /></g>
	
	
	
		
	
	
		
	
	
		
	
	

	
	
		
	
		

	
	
	
	
		

	
		
	
	
		

	
	
		
	
	
		

	
		
	
	
		

	
	
	
		

	
		

	
		
	
		
	
		
	
	
	
		

	
		

	
		
	
		
	
	
	
		

	
		

	
		
	
		
	
	
	
		

	
		

	
		
	
	
		
	
	
		

	
		

	
</g>
<g
   id="Layer_2">
</g>
</svg>